<?xml version="1.0" encoding="UTF-8" standalone="no"?>
<svg
   xmlns:dc="http://purl.org/dc/elements/1.1/"
   xmlns:cc="http://creativecommons.org/ns#"
   xmlns:rdf="http://www.w3.org/1999/02/22-rdf-syntax-ns#"
   xmlns:svg="http://www.w3.org/2000/svg"
   xmlns="http://www.w3.org/2000/svg"
   xmlns:sodipodi="http://sodipodi.sourceforge.net/DTD/sodipodi-0.dtd"
   xmlns:inkscape="http://www.inkscape.org/namespaces/inkscape"
   width="5.3749995pc"
   height="5.3749995pc"
   viewBox="0 0 22.754166 22.754166"
   version="1.1"
   id="svg8"
   inkscape:version="1.0.1 (3bc2e813f5, 2020-09-07)"
   sodipodi:docname="dice_side2.svg">
  <defs
     id="defs2" />
  <sodipodi:namedview
     id="base"
     pagecolor="#ffffff"
     bordercolor="#666666"
     borderopacity="1.0"
     inkscape:pageopacity="0.0"
     inkscape:pageshadow="2"
     inkscape:zoom="1.979899"
     inkscape:cx="117.68401"
     inkscape:cy="53.769299"
     inkscape:document-units="pc"
     inkscape:current-layer="layer1"
     inkscape:document-rotation="0"
     showgrid="false"
     fit-margin-top="0"
     fit-margin-left="0"
     fit-margin-right="0"
     fit-margin-bottom="0"
     units="pc"
     inkscape:window-width="1366"
     inkscape:window-height="728"
     inkscape:window-x="0"
     inkscape:window-y="0"
     inkscape:window-maximized="0" />
  <metadata
     id="metadata5">
    <rdf:RDF>
      <cc:Work
         rdf:about="">
        <dc:format>image/svg+xml</dc:format>
        <dc:type
           rdf:resource="http://purl.org/dc/dcmitype/StillImage" />
        <dc:title></dc:title>
      </cc:Work>
    </rdf:RDF>
  </metadata>
  <g
     inkscape:label="Vrstva 1"
     inkscape:groupmode="layer"
     id="layer1"
     transform="translate(-45.31934,-79.337207)">
    <g
       id="g889">
      <rect
         x="45.31934"
         y="79.337204"
         width="22.754166"
         height="22.754166"
         rx="4.7624998"
         ry="4.7624998"
         fill="#f4081e"
         style="fill:#cc2c00;fill-opacity:1;stroke-width:0.264583;paint-order:normal"
         id="rect1476" />
      <path
         d="m 50.08184,79.337207 c -2.638425,0 -4.7625,2.124075 -4.7625,4.7625 v 13.229167 c 0,2.38125 2.116667,4.762496 2.116667,2.116666 V 84.099707 c 0,-1.322916 1.322917,-2.645833 2.645833,-2.645833 h 15.345834 c 2.645833,0 0.264583,-2.116667 -2.116667,-2.116667 z"
         fill="#ffffff"
         fill-opacity="0.2262"
         style="stroke-width:0.264583;paint-order:normal"
         id="path1478" />
      <g
         id="g1488"
         transform="matrix(0.26458333,0,0,0.26458333,43.467257,77.485124)">
        <circle
           cx="70"
           cy="30"
           fill="#fafafa"
           style="paint-order:normal"
           id="ellipse1480"
           r="8" />
        <path
           d="m 70,22 c -4.418,0 -8,3.582 -8,8 0.0017,2.881 1.552,5.538 4.059,6.957 C 65,31 70,24.997 76.939,26.047 c -1.42,-2.496 -4.07,-4.039 -6.941,-4.043 z"
           fill="#dcdcdc"
           style="paint-order:normal"
           id="path1482" />
        <circle
           cx="30"
           cy="70"
           fill="#fafafa"
           style="paint-order:normal"
           id="ellipse1484"
           r="8" />
        <path
           d="m 30,62 c -4.418,0 -8,3.582 -8,8 0.0017,2.881 1.552,5.538 4.059,6.957 C 25,71 30,64.997 36.939,66.047 c -1.42,-2.496 -4.07,-4.039 -6.941,-4.043 z"
           fill="#dcdcdc"
           style="paint-order:normal"
           id="path1486" />
      </g>
    </g>
  </g>
</svg>
