<?xml version="1.0" encoding="UTF-8" standalone="no"?>
<svg
   xmlns:dc="http://purl.org/dc/elements/1.1/"
   xmlns:cc="http://creativecommons.org/ns#"
   xmlns:rdf="http://www.w3.org/1999/02/22-rdf-syntax-ns#"
   xmlns:svg="http://www.w3.org/2000/svg"
   xmlns="http://www.w3.org/2000/svg"
   xmlns:sodipodi="http://sodipodi.sourceforge.net/DTD/sodipodi-0.dtd"
   xmlns:inkscape="http://www.inkscape.org/namespaces/inkscape"
   width="210mm"
   height="297mm"
   viewBox="0 0 210 297"
   version="1.1"
   id="svg2354"
   inkscape:version="1.0.1 (3bc2e813f5, 2020-09-07)"
   sodipodi:docname="lyzar_1ks.svg">
  <style
     id="style12"></style>
  <defs
     id="defs2348" />
  <sodipodi:namedview
     id="base"
     pagecolor="#ffffff"
     bordercolor="#666666"
     borderopacity="1.0"
     inkscape:pageopacity="0.0"
     inkscape:pageshadow="2"
     inkscape:zoom="0.71268238"
     inkscape:cx="396.85039"
     inkscape:cy="561.25984"
     inkscape:document-units="mm"
     inkscape:current-layer="layer1"
     inkscape:document-rotation="0"
     showgrid="false"
     showborder="false"
     inkscape:window-width="1481"
     inkscape:window-height="1020"
     inkscape:window-x="190"
     inkscape:window-y="0"
     inkscape:window-maximized="0" />
  <metadata
     id="metadata2351">
    <rdf:RDF>
      <cc:Work
         rdf:about="">
        <dc:format>image/svg+xml</dc:format>
        <dc:type
           rdf:resource="http://purl.org/dc/dcmitype/StillImage" />
        <dc:title />
      </cc:Work>
    </rdf:RDF>
  </metadata>
  <g
     inkscape:label="Ebene 1"
     inkscape:groupmode="layer"
     id="layer1">
    <g
       id="g1722-6-2"
       transform="matrix(0.32450823,-0.02986054,0.03762896,0.34822858,-106.80142,-236.75964)"
       inkscape:transform-center-x="-13.031416"
       inkscape:transform-center-y="17.773874"
       style="display:inline">
      <path
         d="m 269.28807,916.58518 c 0.36328,0.21099 1.11456,0.25046 1.64266,0.0983 l 7.15783,-2.13052 -0.38093,2.53937 c -0.0263,0.26008 0.44402,0.49228 1.11757,0.49528 0.64045,0.005 1.2232,-0.19118 1.2456,-0.46465 l 0.49659,-3.30806 1.79677,-0.53645 8.56636,1.37001 0.26916,0.93763 -5.9617,2.43084 c -0.45037,0.18861 -0.46506,0.48887 -0.006,0.68089 0.45488,0.17861 1.19463,0.1779 1.67808,-0.0125 l 4.66912,-1.89548 1.01902,3.54961 c 0.073,0.25451 0.66419,0.43908 1.2931,0.40377 0.6289,-0.0353 1.09698,-0.27938 1.02392,-0.53389 l -1.01517,-3.5362 5.28641,1.3092 c 0.54264,0.13285 1.26316,0.0652 1.63579,-0.15992 0.33952,-0.22322 0.18872,-0.51419 -0.35777,-0.66044 l -6.91435,-1.70777 -0.30758,-1.07158 6.70595,-2.0643 2.97655,0.52699 1.84584,3.1493 c 0.13926,0.25078 0.7889,0.40485 1.41013,0.34275 0.62121,-0.0621 1.0154,-0.32924 0.87613,-0.58002 l -1.43959,-2.43714 7.36939,1.30112 c 0.60116,0.10235 1.27705,-0.004 1.54268,-0.24996 0.26563,-0.2463 0.0194,-0.51829 -0.58178,-0.62064 l -7.68652,-1.35137 5.89519,-1.25657 c 0.56888,-0.12722 0.82298,-0.4137 0.52206,-0.6418 -0.21933,-0.17824 -0.71735,-0.27276 -1.18075,-0.24674 -0.13238,0.008 -0.26096,0.0282 -0.38951,0.0491 l -7.60955,1.61145 -2.62247,-0.46521 -0.98056,-3.41567 3.03619,-0.90547 7.68049,0.86172 c 0.62657,0.0737 1.28707,-0.0859 1.4534,-0.32662 0.19559,-0.25597 -0.1831,-0.52053 -0.77269,-0.58269 l -5.94473,-0.67337 6.60048,-1.9631 c 0.5281,-0.15215 0.6421,-0.458 0.27884,-0.66898 -0.24475,-0.14958 -0.66503,-0.20764 -1.09533,-0.18348 -0.19859,0.0112 -0.39337,0.0357 -0.54732,0.0852 l -6.87916,2.04681 0.40867,-2.67704 c 0.0263,-0.26008 -0.44402,-0.49226 -1.11756,-0.49528 -0.0663,0.004 -0.13625,-0.006 -0.20245,-0.002 -0.56271,0.0316 -1.01307,0.22021 -1.04699,0.4535 l -0.52434,3.44573 -2.69516,0.80466 -7.81425,-1.56196 -0.3807,-1.32608 5.71995,-2.33559 c 0.45037,-0.18862 0.46508,-0.48887 0.006,-0.68088 -0.26632,-0.10755 -0.61655,-0.15593 -0.98065,-0.13549 -0.26483,0.0147 -0.48882,0.0547 -0.70128,0.13466 l -4.4274,1.80024 -0.92288,-3.21474 c -0.073,-0.2545 -0.66418,-0.43908 -1.2931,-0.40377 -0.62891,0.0353 -1.09698,0.27939 -1.02392,0.53389 l 0.97671,3.40226 -5.57812,-1.38809 c -0.54265,-0.13286 -1.26317,-0.0652 -1.63579,0.15991 -0.33953,0.22323 -0.18873,0.5142 0.35777,0.66044 l 7.20222,1.77327 0.32684,1.13855 -7.46726,2.10706 -2.09135,-0.37255 -1.91741,-3.28138 c -0.13541,-0.23739 -0.68191,-0.38364 -1.27771,-0.35019 -0.0331,0.002 -0.0993,0.005 -0.13238,0.008 -0.62122,0.0621 -1.01541,0.32923 -0.87614,0.58002 l 1.51116,2.56922 -8.0406,-1.41314 c -0.21014,-0.029 -0.41643,-0.0447 -0.61504,-0.0335 -0.39719,0.0224 -0.77133,0.12498 -0.92763,0.28347 -0.26564,0.2463 -0.0193,0.51829 0.58178,0.62065 l 7.97054,1.40346 -5.61267,1.18627 c -0.56888,0.12722 -0.82298,0.4137 -0.52206,0.64179 0.30092,0.2281 1.00138,0.32487 1.57027,0.19765 l 7.32317,-1.55453 2.09136,0.37254 1.069,3.72374 -1.85912,0.55355 -7.99378,-0.89856 c -0.17319,-0.0175 -0.30945,-0.0234 -0.47494,-0.0141 -0.46341,0.026 -0.86295,0.15735 -0.97846,0.34077 -0.19559,0.25597 0.1831,0.52054 0.77269,0.5827 l 6.25416,0.69682 -7.18707,2.14576 c -0.49116,0.16369 -0.63827,0.47138 -0.2419,0.68051 z m 15.30551,-3.97634 5.2987,-1.57696 0.72676,2.53161 z m 8.33714,0.68873 -0.66909,-2.33068 5.24109,0.91703 z m 5.459,-2.30732 -5.27803,-0.92858 4.61664,-1.37532 z m -1.99211,-3.07303 -4.64974,1.37718 -0.69985,-2.43784 z m -7.69738,-1.03771 0.73061,2.545 -5.98619,-1.05212 z m -6.24957,2.36534 5.98617,1.05213 -5.23632,1.55984 z"
         id="path1710-3-2"
         inkscape:transform-center-x="24.215121"
         inkscape:transform-center-y="11.884123"
         style="fill:#2c88a0;fill-opacity:1;stroke-width:0.212254" />
      <g
         id="g1720-9-9"
         transform="matrix(1.9065094,0,0,2.2933545,285.59506,861.73064)">
        <circle
           style="fill:#030104"
           cx="22.320999"
           cy="2.313"
           r="2.313"
           id="circle1712-7-3" />
        <path
           style="fill:#030104"
           d="m 17.183,2.936 c 1.035,0 2.561,0.632 2.561,2.157 0,1.525 -0.978,4.333 -0.978,4.333 0,0 2.555,1.673 3.191,2.186 1.332,1.072 0.879,2.034 -0.904,1.281 C 18.158,11.671 16.799,11.068 16.581,10.305 16.363,9.542 16.556,7.994 16.556,7.994 L 14.883,8.689 7.805,3.487 c 0,0 -0.65,0.462 -0.99,0.462 -0.342,0 -0.75,-0.25 -0.75,-0.25 L 6.852,2.642 6.008,1.612 7.18,2.111 c -0.022,0 0.725,-0.979 0.725,-0.979 0,0 0.387,0.228 0.478,0.682 0.091,0.454 -0.078,0.892 -0.078,0.892 l 3.047,2.233 c 0,0 1.798,-2.003 5.831,-2.003 z"
           id="path1714-1-3" />
        <path
           style="fill:#030104"
           d="m 9.696,7.023 c 0,0 5.735,4.012 6.498,4.611 0.764,0.6 2.581,2.188 0.667,4.541 -1.874,2.304 -3.882,4.561 -3.882,4.561 l -1.146,-0.491 -1.472,-0.764 c 0,0 2.759,-3.442 3.25,-4.097 C 14.101,14.73 13.945,14.19 13.279,13.69 12.634,13.207 11.539,12.571 10.57,11.898 9.612,11.232 8.112,9.19 9.696,7.023 Z"
           id="path1716-2-4" />
        <path
           style="fill:none;stroke:#030104;stroke-width:2;stroke-linecap:round;stroke-linejoin:round;stroke-miterlimit:10"
           d="m 1.054,13.118 19.78,11.344 c 0,0 2.561,1.144 3.924,-0.709"
           id="path1718-0-3" />
      </g>
    </g>
    <g
       id="g1722-6-2-9"
       transform="matrix(0.32450823,-0.02986054,0.03762896,0.34822858,-97.296894,-198.23315)"
       inkscape:transform-center-x="-13.031416"
       inkscape:transform-center-y="17.773874"
       style="display:inline">
      <path
         d="m 269.28807,916.58518 c 0.36328,0.21099 1.11456,0.25046 1.64266,0.0983 l 7.15783,-2.13052 -0.38093,2.53937 c -0.0263,0.26008 0.44402,0.49228 1.11757,0.49528 0.64045,0.005 1.2232,-0.19118 1.2456,-0.46465 l 0.49659,-3.30806 1.79677,-0.53645 8.56636,1.37001 0.26916,0.93763 -5.9617,2.43084 c -0.45037,0.18861 -0.46506,0.48887 -0.006,0.68089 0.45488,0.17861 1.19463,0.1779 1.67808,-0.0125 l 4.66912,-1.89548 1.01902,3.54961 c 0.073,0.25451 0.66419,0.43908 1.2931,0.40377 0.6289,-0.0353 1.09698,-0.27938 1.02392,-0.53389 l -1.01517,-3.5362 5.28641,1.3092 c 0.54264,0.13285 1.26316,0.0652 1.63579,-0.15992 0.33952,-0.22322 0.18872,-0.51419 -0.35777,-0.66044 l -6.91435,-1.70777 -0.30758,-1.07158 6.70595,-2.0643 2.97655,0.52699 1.84584,3.1493 c 0.13926,0.25078 0.7889,0.40485 1.41013,0.34275 0.62121,-0.0621 1.0154,-0.32924 0.87613,-0.58002 l -1.43959,-2.43714 7.36939,1.30112 c 0.60116,0.10235 1.27705,-0.004 1.54268,-0.24996 0.26563,-0.2463 0.0194,-0.51829 -0.58178,-0.62064 l -7.68652,-1.35137 5.89519,-1.25657 c 0.56888,-0.12722 0.82298,-0.4137 0.52206,-0.6418 -0.21933,-0.17824 -0.71735,-0.27276 -1.18075,-0.24674 -0.13238,0.008 -0.26096,0.0282 -0.38951,0.0491 l -7.60955,1.61145 -2.62247,-0.46521 -0.98056,-3.41567 3.03619,-0.90547 7.68049,0.86172 c 0.62657,0.0737 1.28707,-0.0859 1.4534,-0.32662 0.19559,-0.25597 -0.1831,-0.52053 -0.77269,-0.58269 l -5.94473,-0.67337 6.60048,-1.9631 c 0.5281,-0.15215 0.6421,-0.458 0.27884,-0.66898 -0.24475,-0.14958 -0.66503,-0.20764 -1.09533,-0.18348 -0.19859,0.0112 -0.39337,0.0357 -0.54732,0.0852 l -6.87916,2.04681 0.40867,-2.67704 c 0.0263,-0.26008 -0.44402,-0.49226 -1.11756,-0.49528 -0.0663,0.004 -0.13625,-0.006 -0.20245,-0.002 -0.56271,0.0316 -1.01307,0.22021 -1.04699,0.4535 l -0.52434,3.44573 -2.69516,0.80466 -7.81425,-1.56196 -0.3807,-1.32608 5.71995,-2.33559 c 0.45037,-0.18862 0.46508,-0.48887 0.006,-0.68088 -0.26632,-0.10755 -0.61655,-0.15593 -0.98065,-0.13549 -0.26483,0.0147 -0.48882,0.0547 -0.70128,0.13466 l -4.4274,1.80024 -0.92288,-3.21474 c -0.073,-0.2545 -0.66418,-0.43908 -1.2931,-0.40377 -0.62891,0.0353 -1.09698,0.27939 -1.02392,0.53389 l 0.97671,3.40226 -5.57812,-1.38809 c -0.54265,-0.13286 -1.26317,-0.0652 -1.63579,0.15991 -0.33953,0.22323 -0.18873,0.5142 0.35777,0.66044 l 7.20222,1.77327 0.32684,1.13855 -7.46726,2.10706 -2.09135,-0.37255 -1.91741,-3.28138 c -0.13541,-0.23739 -0.68191,-0.38364 -1.27771,-0.35019 -0.0331,0.002 -0.0993,0.005 -0.13238,0.008 -0.62122,0.0621 -1.01541,0.32923 -0.87614,0.58002 l 1.51116,2.56922 -8.0406,-1.41314 c -0.21014,-0.029 -0.41643,-0.0447 -0.61504,-0.0335 -0.39719,0.0224 -0.77133,0.12498 -0.92763,0.28347 -0.26564,0.2463 -0.0193,0.51829 0.58178,0.62065 l 7.97054,1.40346 -5.61267,1.18627 c -0.56888,0.12722 -0.82298,0.4137 -0.52206,0.64179 0.30092,0.2281 1.00138,0.32487 1.57027,0.19765 l 7.32317,-1.55453 2.09136,0.37254 1.069,3.72374 -1.85912,0.55355 -7.99378,-0.89856 c -0.17319,-0.0175 -0.30945,-0.0234 -0.47494,-0.0141 -0.46341,0.026 -0.86295,0.15735 -0.97846,0.34077 -0.19559,0.25597 0.1831,0.52054 0.77269,0.5827 l 6.25416,0.69682 -7.18707,2.14576 c -0.49116,0.16369 -0.63827,0.47138 -0.2419,0.68051 z m 15.30551,-3.97634 5.2987,-1.57696 0.72676,2.53161 z m 8.33714,0.68873 -0.66909,-2.33068 5.24109,0.91703 z m 5.459,-2.30732 -5.27803,-0.92858 4.61664,-1.37532 z m -1.99211,-3.07303 -4.64974,1.37718 -0.69985,-2.43784 z m -7.69738,-1.03771 0.73061,2.545 -5.98619,-1.05212 z m -6.24957,2.36534 5.98617,1.05213 -5.23632,1.55984 z"
         id="path1710-3-2-1"
         inkscape:transform-center-x="24.215121"
         inkscape:transform-center-y="11.884123"
         style="fill:#2c88a0;fill-opacity:1;stroke-width:0.212254" />
      <g
         id="g1720-9-9-2"
         transform="matrix(1.9065094,0,0,2.2933545,285.59506,861.73064)">
        <circle
           style="fill:#030104"
           cx="22.320999"
           cy="2.313"
           r="2.313"
           id="circle1712-7-3-4" />
        <path
           style="fill:#030104"
           d="m 17.183,2.936 c 1.035,0 2.561,0.632 2.561,2.157 0,1.525 -0.978,4.333 -0.978,4.333 0,0 2.555,1.673 3.191,2.186 1.332,1.072 0.879,2.034 -0.904,1.281 C 18.158,11.671 16.799,11.068 16.581,10.305 16.363,9.542 16.556,7.994 16.556,7.994 L 14.883,8.689 7.805,3.487 c 0,0 -0.65,0.462 -0.99,0.462 -0.342,0 -0.75,-0.25 -0.75,-0.25 L 6.852,2.642 6.008,1.612 7.18,2.111 c -0.022,0 0.725,-0.979 0.725,-0.979 0,0 0.387,0.228 0.478,0.682 0.091,0.454 -0.078,0.892 -0.078,0.892 l 3.047,2.233 c 0,0 1.798,-2.003 5.831,-2.003 z"
           id="path1714-1-3-4" />
        <path
           style="fill:#030104"
           d="m 9.696,7.023 c 0,0 5.735,4.012 6.498,4.611 0.764,0.6 2.581,2.188 0.667,4.541 -1.874,2.304 -3.882,4.561 -3.882,4.561 l -1.146,-0.491 -1.472,-0.764 c 0,0 2.759,-3.442 3.25,-4.097 C 14.101,14.73 13.945,14.19 13.279,13.69 12.634,13.207 11.539,12.571 10.57,11.898 9.612,11.232 8.112,9.19 9.696,7.023 Z"
           id="path1716-2-4-7" />
        <path
           style="fill:none;stroke:#030104;stroke-width:2;stroke-linecap:round;stroke-linejoin:round;stroke-miterlimit:10"
           d="m 1.054,13.118 19.78,11.344 c 0,0 2.561,1.144 3.924,-0.709"
           id="path1718-0-3-5" />
      </g>
    </g>
    <g
       id="g1722-6-2-9-3"
       transform="matrix(0.32450823,-0.02986054,0.03762896,0.34822858,-18.963144,-200.8319)"
       inkscape:transform-center-x="-13.031416"
       inkscape:transform-center-y="17.773874"
       style="display:inline">
      <path
         d="m 269.28807,916.58518 c 0.36328,0.21099 1.11456,0.25046 1.64266,0.0983 l 7.15783,-2.13052 -0.38093,2.53937 c -0.0263,0.26008 0.44402,0.49228 1.11757,0.49528 0.64045,0.005 1.2232,-0.19118 1.2456,-0.46465 l 0.49659,-3.30806 1.79677,-0.53645 8.56636,1.37001 0.26916,0.93763 -5.9617,2.43084 c -0.45037,0.18861 -0.46506,0.48887 -0.006,0.68089 0.45488,0.17861 1.19463,0.1779 1.67808,-0.0125 l 4.66912,-1.89548 1.01902,3.54961 c 0.073,0.25451 0.66419,0.43908 1.2931,0.40377 0.6289,-0.0353 1.09698,-0.27938 1.02392,-0.53389 l -1.01517,-3.5362 5.28641,1.3092 c 0.54264,0.13285 1.26316,0.0652 1.63579,-0.15992 0.33952,-0.22322 0.18872,-0.51419 -0.35777,-0.66044 l -6.91435,-1.70777 -0.30758,-1.07158 6.70595,-2.0643 2.97655,0.52699 1.84584,3.1493 c 0.13926,0.25078 0.7889,0.40485 1.41013,0.34275 0.62121,-0.0621 1.0154,-0.32924 0.87613,-0.58002 l -1.43959,-2.43714 7.36939,1.30112 c 0.60116,0.10235 1.27705,-0.004 1.54268,-0.24996 0.26563,-0.2463 0.0194,-0.51829 -0.58178,-0.62064 l -7.68652,-1.35137 5.89519,-1.25657 c 0.56888,-0.12722 0.82298,-0.4137 0.52206,-0.6418 -0.21933,-0.17824 -0.71735,-0.27276 -1.18075,-0.24674 -0.13238,0.008 -0.26096,0.0282 -0.38951,0.0491 l -7.60955,1.61145 -2.62247,-0.46521 -0.98056,-3.41567 3.03619,-0.90547 7.68049,0.86172 c 0.62657,0.0737 1.28707,-0.0859 1.4534,-0.32662 0.19559,-0.25597 -0.1831,-0.52053 -0.77269,-0.58269 l -5.94473,-0.67337 6.60048,-1.9631 c 0.5281,-0.15215 0.6421,-0.458 0.27884,-0.66898 -0.24475,-0.14958 -0.66503,-0.20764 -1.09533,-0.18348 -0.19859,0.0112 -0.39337,0.0357 -0.54732,0.0852 l -6.87916,2.04681 0.40867,-2.67704 c 0.0263,-0.26008 -0.44402,-0.49226 -1.11756,-0.49528 -0.0663,0.004 -0.13625,-0.006 -0.20245,-0.002 -0.56271,0.0316 -1.01307,0.22021 -1.04699,0.4535 l -0.52434,3.44573 -2.69516,0.80466 -7.81425,-1.56196 -0.3807,-1.32608 5.71995,-2.33559 c 0.45037,-0.18862 0.46508,-0.48887 0.006,-0.68088 -0.26632,-0.10755 -0.61655,-0.15593 -0.98065,-0.13549 -0.26483,0.0147 -0.48882,0.0547 -0.70128,0.13466 l -4.4274,1.80024 -0.92288,-3.21474 c -0.073,-0.2545 -0.66418,-0.43908 -1.2931,-0.40377 -0.62891,0.0353 -1.09698,0.27939 -1.02392,0.53389 l 0.97671,3.40226 -5.57812,-1.38809 c -0.54265,-0.13286 -1.26317,-0.0652 -1.63579,0.15991 -0.33953,0.22323 -0.18873,0.5142 0.35777,0.66044 l 7.20222,1.77327 0.32684,1.13855 -7.46726,2.10706 -2.09135,-0.37255 -1.91741,-3.28138 c -0.13541,-0.23739 -0.68191,-0.38364 -1.27771,-0.35019 -0.0331,0.002 -0.0993,0.005 -0.13238,0.008 -0.62122,0.0621 -1.01541,0.32923 -0.87614,0.58002 l 1.51116,2.56922 -8.0406,-1.41314 c -0.21014,-0.029 -0.41643,-0.0447 -0.61504,-0.0335 -0.39719,0.0224 -0.77133,0.12498 -0.92763,0.28347 -0.26564,0.2463 -0.0193,0.51829 0.58178,0.62065 l 7.97054,1.40346 -5.61267,1.18627 c -0.56888,0.12722 -0.82298,0.4137 -0.52206,0.64179 0.30092,0.2281 1.00138,0.32487 1.57027,0.19765 l 7.32317,-1.55453 2.09136,0.37254 1.069,3.72374 -1.85912,0.55355 -7.99378,-0.89856 c -0.17319,-0.0175 -0.30945,-0.0234 -0.47494,-0.0141 -0.46341,0.026 -0.86295,0.15735 -0.97846,0.34077 -0.19559,0.25597 0.1831,0.52054 0.77269,0.5827 l 6.25416,0.69682 -7.18707,2.14576 c -0.49116,0.16369 -0.63827,0.47138 -0.2419,0.68051 z m 15.30551,-3.97634 5.2987,-1.57696 0.72676,2.53161 z m 8.33714,0.68873 -0.66909,-2.33068 5.24109,0.91703 z m 5.459,-2.30732 -5.27803,-0.92858 4.61664,-1.37532 z m -1.99211,-3.07303 -4.64974,1.37718 -0.69985,-2.43784 z m -7.69738,-1.03771 0.73061,2.545 -5.98619,-1.05212 z m -6.24957,2.36534 5.98617,1.05213 -5.23632,1.55984 z"
         id="path1710-3-2-1-0"
         inkscape:transform-center-x="24.215121"
         inkscape:transform-center-y="11.884123"
         style="fill:#2c88a0;fill-opacity:1;stroke-width:0.212254" />
      <g
         id="g1720-9-9-2-1"
         transform="matrix(1.9065094,0,0,2.2933545,285.59506,861.73064)">
        <circle
           style="fill:#030104"
           cx="22.320999"
           cy="2.313"
           r="2.313"
           id="circle1712-7-3-4-6" />
        <path
           style="fill:#030104"
           d="m 17.183,2.936 c 1.035,0 2.561,0.632 2.561,2.157 0,1.525 -0.978,4.333 -0.978,4.333 0,0 2.555,1.673 3.191,2.186 1.332,1.072 0.879,2.034 -0.904,1.281 C 18.158,11.671 16.799,11.068 16.581,10.305 16.363,9.542 16.556,7.994 16.556,7.994 L 14.883,8.689 7.805,3.487 c 0,0 -0.65,0.462 -0.99,0.462 -0.342,0 -0.75,-0.25 -0.75,-0.25 L 6.852,2.642 6.008,1.612 7.18,2.111 c -0.022,0 0.725,-0.979 0.725,-0.979 0,0 0.387,0.228 0.478,0.682 0.091,0.454 -0.078,0.892 -0.078,0.892 l 3.047,2.233 c 0,0 1.798,-2.003 5.831,-2.003 z"
           id="path1714-1-3-4-7" />
        <path
           style="fill:#030104"
           d="m 9.696,7.023 c 0,0 5.735,4.012 6.498,4.611 0.764,0.6 2.581,2.188 0.667,4.541 -1.874,2.304 -3.882,4.561 -3.882,4.561 l -1.146,-0.491 -1.472,-0.764 c 0,0 2.759,-3.442 3.25,-4.097 C 14.101,14.73 13.945,14.19 13.279,13.69 12.634,13.207 11.539,12.571 10.57,11.898 9.612,11.232 8.112,9.19 9.696,7.023 Z"
           id="path1716-2-4-7-7" />
        <path
           style="fill:none;stroke:#030104;stroke-width:2;stroke-linecap:round;stroke-linejoin:round;stroke-miterlimit:10"
           d="m 1.054,13.118 19.78,11.344 c 0,0 2.561,1.144 3.924,-0.709"
           id="path1718-0-3-5-7" />
      </g>
    </g>
    <g
       id="g1722-6-2-9-1"
       transform="matrix(0.32450823,-0.02986054,0.03762896,0.34822858,17.419356,-206.0294)"
       inkscape:transform-center-x="-13.031416"
       inkscape:transform-center-y="17.773874"
       style="display:inline">
      <path
         d="m 269.28807,916.58518 c 0.36328,0.21099 1.11456,0.25046 1.64266,0.0983 l 7.15783,-2.13052 -0.38093,2.53937 c -0.0263,0.26008 0.44402,0.49228 1.11757,0.49528 0.64045,0.005 1.2232,-0.19118 1.2456,-0.46465 l 0.49659,-3.30806 1.79677,-0.53645 8.56636,1.37001 0.26916,0.93763 -5.9617,2.43084 c -0.45037,0.18861 -0.46506,0.48887 -0.006,0.68089 0.45488,0.17861 1.19463,0.1779 1.67808,-0.0125 l 4.66912,-1.89548 1.01902,3.54961 c 0.073,0.25451 0.66419,0.43908 1.2931,0.40377 0.6289,-0.0353 1.09698,-0.27938 1.02392,-0.53389 l -1.01517,-3.5362 5.28641,1.3092 c 0.54264,0.13285 1.26316,0.0652 1.63579,-0.15992 0.33952,-0.22322 0.18872,-0.51419 -0.35777,-0.66044 l -6.91435,-1.70777 -0.30758,-1.07158 6.70595,-2.0643 2.97655,0.52699 1.84584,3.1493 c 0.13926,0.25078 0.7889,0.40485 1.41013,0.34275 0.62121,-0.0621 1.0154,-0.32924 0.87613,-0.58002 l -1.43959,-2.43714 7.36939,1.30112 c 0.60116,0.10235 1.27705,-0.004 1.54268,-0.24996 0.26563,-0.2463 0.0194,-0.51829 -0.58178,-0.62064 l -7.68652,-1.35137 5.89519,-1.25657 c 0.56888,-0.12722 0.82298,-0.4137 0.52206,-0.6418 -0.21933,-0.17824 -0.71735,-0.27276 -1.18075,-0.24674 -0.13238,0.008 -0.26096,0.0282 -0.38951,0.0491 l -7.60955,1.61145 -2.62247,-0.46521 -0.98056,-3.41567 3.03619,-0.90547 7.68049,0.86172 c 0.62657,0.0737 1.28707,-0.0859 1.4534,-0.32662 0.19559,-0.25597 -0.1831,-0.52053 -0.77269,-0.58269 l -5.94473,-0.67337 6.60048,-1.9631 c 0.5281,-0.15215 0.6421,-0.458 0.27884,-0.66898 -0.24475,-0.14958 -0.66503,-0.20764 -1.09533,-0.18348 -0.19859,0.0112 -0.39337,0.0357 -0.54732,0.0852 l -6.87916,2.04681 0.40867,-2.67704 c 0.0263,-0.26008 -0.44402,-0.49226 -1.11756,-0.49528 -0.0663,0.004 -0.13625,-0.006 -0.20245,-0.002 -0.56271,0.0316 -1.01307,0.22021 -1.04699,0.4535 l -0.52434,3.44573 -2.69516,0.80466 -7.81425,-1.56196 -0.3807,-1.32608 5.71995,-2.33559 c 0.45037,-0.18862 0.46508,-0.48887 0.006,-0.68088 -0.26632,-0.10755 -0.61655,-0.15593 -0.98065,-0.13549 -0.26483,0.0147 -0.48882,0.0547 -0.70128,0.13466 l -4.4274,1.80024 -0.92288,-3.21474 c -0.073,-0.2545 -0.66418,-0.43908 -1.2931,-0.40377 -0.62891,0.0353 -1.09698,0.27939 -1.02392,0.53389 l 0.97671,3.40226 -5.57812,-1.38809 c -0.54265,-0.13286 -1.26317,-0.0652 -1.63579,0.15991 -0.33953,0.22323 -0.18873,0.5142 0.35777,0.66044 l 7.20222,1.77327 0.32684,1.13855 -7.46726,2.10706 -2.09135,-0.37255 -1.91741,-3.28138 c -0.13541,-0.23739 -0.68191,-0.38364 -1.27771,-0.35019 -0.0331,0.002 -0.0993,0.005 -0.13238,0.008 -0.62122,0.0621 -1.01541,0.32923 -0.87614,0.58002 l 1.51116,2.56922 -8.0406,-1.41314 c -0.21014,-0.029 -0.41643,-0.0447 -0.61504,-0.0335 -0.39719,0.0224 -0.77133,0.12498 -0.92763,0.28347 -0.26564,0.2463 -0.0193,0.51829 0.58178,0.62065 l 7.97054,1.40346 -5.61267,1.18627 c -0.56888,0.12722 -0.82298,0.4137 -0.52206,0.64179 0.30092,0.2281 1.00138,0.32487 1.57027,0.19765 l 7.32317,-1.55453 2.09136,0.37254 1.069,3.72374 -1.85912,0.55355 -7.99378,-0.89856 c -0.17319,-0.0175 -0.30945,-0.0234 -0.47494,-0.0141 -0.46341,0.026 -0.86295,0.15735 -0.97846,0.34077 -0.19559,0.25597 0.1831,0.52054 0.77269,0.5827 l 6.25416,0.69682 -7.18707,2.14576 c -0.49116,0.16369 -0.63827,0.47138 -0.2419,0.68051 z m 15.30551,-3.97634 5.2987,-1.57696 0.72676,2.53161 z m 8.33714,0.68873 -0.66909,-2.33068 5.24109,0.91703 z m 5.459,-2.30732 -5.27803,-0.92858 4.61664,-1.37532 z m -1.99211,-3.07303 -4.64974,1.37718 -0.69985,-2.43784 z m -7.69738,-1.03771 0.73061,2.545 -5.98619,-1.05212 z m -6.24957,2.36534 5.98617,1.05213 -5.23632,1.55984 z"
         id="path1710-3-2-1-07"
         inkscape:transform-center-x="24.215121"
         inkscape:transform-center-y="11.884123"
         style="fill:#2c88a0;fill-opacity:1;stroke-width:0.212254" />
      <g
         id="g1720-9-9-2-4"
         transform="matrix(1.9065094,0,0,2.2933545,285.59506,861.73064)">
        <circle
           style="fill:#030104"
           cx="22.320999"
           cy="2.313"
           r="2.313"
           id="circle1712-7-3-4-5" />
        <path
           style="fill:#030104"
           d="m 17.183,2.936 c 1.035,0 2.561,0.632 2.561,2.157 0,1.525 -0.978,4.333 -0.978,4.333 0,0 2.555,1.673 3.191,2.186 1.332,1.072 0.879,2.034 -0.904,1.281 C 18.158,11.671 16.799,11.068 16.581,10.305 16.363,9.542 16.556,7.994 16.556,7.994 L 14.883,8.689 7.805,3.487 c 0,0 -0.65,0.462 -0.99,0.462 -0.342,0 -0.75,-0.25 -0.75,-0.25 L 6.852,2.642 6.008,1.612 7.18,2.111 c -0.022,0 0.725,-0.979 0.725,-0.979 0,0 0.387,0.228 0.478,0.682 0.091,0.454 -0.078,0.892 -0.078,0.892 l 3.047,2.233 c 0,0 1.798,-2.003 5.831,-2.003 z"
           id="path1714-1-3-4-4" />
        <path
           style="fill:#030104"
           d="m 9.696,7.023 c 0,0 5.735,4.012 6.498,4.611 0.764,0.6 2.581,2.188 0.667,4.541 -1.874,2.304 -3.882,4.561 -3.882,4.561 l -1.146,-0.491 -1.472,-0.764 c 0,0 2.759,-3.442 3.25,-4.097 C 14.101,14.73 13.945,14.19 13.279,13.69 12.634,13.207 11.539,12.571 10.57,11.898 9.612,11.232 8.112,9.19 9.696,7.023 Z"
           id="path1716-2-4-7-77" />
        <path
           style="fill:none;stroke:#030104;stroke-width:2;stroke-linecap:round;stroke-linejoin:round;stroke-miterlimit:10"
           d="m 1.054,13.118 19.78,11.344 c 0,0 2.561,1.144 3.924,-0.709"
           id="path1718-0-3-5-8" />
      </g>
    </g>
    <g
       id="g1722-6-2-9-10"
       transform="matrix(0.32450823,-0.02986054,0.03762896,0.34822858,-57.944394,-212.34065)"
       inkscape:transform-center-x="-13.031416"
       inkscape:transform-center-y="17.773874"
       style="display:inline">
      <path
         d="m 269.28807,916.58518 c 0.36328,0.21099 1.11456,0.25046 1.64266,0.0983 l 7.15783,-2.13052 -0.38093,2.53937 c -0.0263,0.26008 0.44402,0.49228 1.11757,0.49528 0.64045,0.005 1.2232,-0.19118 1.2456,-0.46465 l 0.49659,-3.30806 1.79677,-0.53645 8.56636,1.37001 0.26916,0.93763 -5.9617,2.43084 c -0.45037,0.18861 -0.46506,0.48887 -0.006,0.68089 0.45488,0.17861 1.19463,0.1779 1.67808,-0.0125 l 4.66912,-1.89548 1.01902,3.54961 c 0.073,0.25451 0.66419,0.43908 1.2931,0.40377 0.6289,-0.0353 1.09698,-0.27938 1.02392,-0.53389 l -1.01517,-3.5362 5.28641,1.3092 c 0.54264,0.13285 1.26316,0.0652 1.63579,-0.15992 0.33952,-0.22322 0.18872,-0.51419 -0.35777,-0.66044 l -6.91435,-1.70777 -0.30758,-1.07158 6.70595,-2.0643 2.97655,0.52699 1.84584,3.1493 c 0.13926,0.25078 0.7889,0.40485 1.41013,0.34275 0.62121,-0.0621 1.0154,-0.32924 0.87613,-0.58002 l -1.43959,-2.43714 7.36939,1.30112 c 0.60116,0.10235 1.27705,-0.004 1.54268,-0.24996 0.26563,-0.2463 0.0194,-0.51829 -0.58178,-0.62064 l -7.68652,-1.35137 5.89519,-1.25657 c 0.56888,-0.12722 0.82298,-0.4137 0.52206,-0.6418 -0.21933,-0.17824 -0.71735,-0.27276 -1.18075,-0.24674 -0.13238,0.008 -0.26096,0.0282 -0.38951,0.0491 l -7.60955,1.61145 -2.62247,-0.46521 -0.98056,-3.41567 3.03619,-0.90547 7.68049,0.86172 c 0.62657,0.0737 1.28707,-0.0859 1.4534,-0.32662 0.19559,-0.25597 -0.1831,-0.52053 -0.77269,-0.58269 l -5.94473,-0.67337 6.60048,-1.9631 c 0.5281,-0.15215 0.6421,-0.458 0.27884,-0.66898 -0.24475,-0.14958 -0.66503,-0.20764 -1.09533,-0.18348 -0.19859,0.0112 -0.39337,0.0357 -0.54732,0.0852 l -6.87916,2.04681 0.40867,-2.67704 c 0.0263,-0.26008 -0.44402,-0.49226 -1.11756,-0.49528 -0.0663,0.004 -0.13625,-0.006 -0.20245,-0.002 -0.56271,0.0316 -1.01307,0.22021 -1.04699,0.4535 l -0.52434,3.44573 -2.69516,0.80466 -7.81425,-1.56196 -0.3807,-1.32608 5.71995,-2.33559 c 0.45037,-0.18862 0.46508,-0.48887 0.006,-0.68088 -0.26632,-0.10755 -0.61655,-0.15593 -0.98065,-0.13549 -0.26483,0.0147 -0.48882,0.0547 -0.70128,0.13466 l -4.4274,1.80024 -0.92288,-3.21474 c -0.073,-0.2545 -0.66418,-0.43908 -1.2931,-0.40377 -0.62891,0.0353 -1.09698,0.27939 -1.02392,0.53389 l 0.97671,3.40226 -5.57812,-1.38809 c -0.54265,-0.13286 -1.26317,-0.0652 -1.63579,0.15991 -0.33953,0.22323 -0.18873,0.5142 0.35777,0.66044 l 7.20222,1.77327 0.32684,1.13855 -7.46726,2.10706 -2.09135,-0.37255 -1.91741,-3.28138 c -0.13541,-0.23739 -0.68191,-0.38364 -1.27771,-0.35019 -0.0331,0.002 -0.0993,0.005 -0.13238,0.008 -0.62122,0.0621 -1.01541,0.32923 -0.87614,0.58002 l 1.51116,2.56922 -8.0406,-1.41314 c -0.21014,-0.029 -0.41643,-0.0447 -0.61504,-0.0335 -0.39719,0.0224 -0.77133,0.12498 -0.92763,0.28347 -0.26564,0.2463 -0.0193,0.51829 0.58178,0.62065 l 7.97054,1.40346 -5.61267,1.18627 c -0.56888,0.12722 -0.82298,0.4137 -0.52206,0.64179 0.30092,0.2281 1.00138,0.32487 1.57027,0.19765 l 7.32317,-1.55453 2.09136,0.37254 1.069,3.72374 -1.85912,0.55355 -7.99378,-0.89856 c -0.17319,-0.0175 -0.30945,-0.0234 -0.47494,-0.0141 -0.46341,0.026 -0.86295,0.15735 -0.97846,0.34077 -0.19559,0.25597 0.1831,0.52054 0.77269,0.5827 l 6.25416,0.69682 -7.18707,2.14576 c -0.49116,0.16369 -0.63827,0.47138 -0.2419,0.68051 z m 15.30551,-3.97634 5.2987,-1.57696 0.72676,2.53161 z m 8.33714,0.68873 -0.66909,-2.33068 5.24109,0.91703 z m 5.459,-2.30732 -5.27803,-0.92858 4.61664,-1.37532 z m -1.99211,-3.07303 -4.64974,1.37718 -0.69985,-2.43784 z m -7.69738,-1.03771 0.73061,2.545 -5.98619,-1.05212 z m -6.24957,2.36534 5.98617,1.05213 -5.23632,1.55984 z"
         id="path1710-3-2-1-9"
         inkscape:transform-center-x="24.215121"
         inkscape:transform-center-y="11.884123"
         style="fill:#2c88a0;fill-opacity:1;stroke-width:0.212254" />
      <g
         id="g1720-9-9-2-15"
         transform="matrix(1.9065094,0,0,2.2933545,285.59506,861.73064)">
        <circle
           style="fill:#030104"
           cx="22.320999"
           cy="2.313"
           r="2.313"
           id="circle1712-7-3-4-8" />
        <path
           style="fill:#030104"
           d="m 17.183,2.936 c 1.035,0 2.561,0.632 2.561,2.157 0,1.525 -0.978,4.333 -0.978,4.333 0,0 2.555,1.673 3.191,2.186 1.332,1.072 0.879,2.034 -0.904,1.281 C 18.158,11.671 16.799,11.068 16.581,10.305 16.363,9.542 16.556,7.994 16.556,7.994 L 14.883,8.689 7.805,3.487 c 0,0 -0.65,0.462 -0.99,0.462 -0.342,0 -0.75,-0.25 -0.75,-0.25 L 6.852,2.642 6.008,1.612 7.18,2.111 c -0.022,0 0.725,-0.979 0.725,-0.979 0,0 0.387,0.228 0.478,0.682 0.091,0.454 -0.078,0.892 -0.078,0.892 l 3.047,2.233 c 0,0 1.798,-2.003 5.831,-2.003 z"
           id="path1714-1-3-4-9" />
        <path
           style="fill:#030104"
           d="m 9.696,7.023 c 0,0 5.735,4.012 6.498,4.611 0.764,0.6 2.581,2.188 0.667,4.541 -1.874,2.304 -3.882,4.561 -3.882,4.561 l -1.146,-0.491 -1.472,-0.764 c 0,0 2.759,-3.442 3.25,-4.097 C 14.101,14.73 13.945,14.19 13.279,13.69 12.634,13.207 11.539,12.571 10.57,11.898 9.612,11.232 8.112,9.19 9.696,7.023 Z"
           id="path1716-2-4-7-6" />
        <path
           style="fill:none;stroke:#030104;stroke-width:2;stroke-linecap:round;stroke-linejoin:round;stroke-miterlimit:10"
           d="m 1.054,13.118 19.78,11.344 c 0,0 2.561,1.144 3.924,-0.709"
           id="path1718-0-3-5-0" />
      </g>
    </g>
    <g
       id="g1722-6-2-9-1-7"
       transform="matrix(0.32450823,-0.02986054,0.03762896,0.34822858,46.005605,-195.6344)"
       inkscape:transform-center-x="-13.031416"
       inkscape:transform-center-y="17.773874"
       style="display:inline">
      <path
         d="m 269.28807,916.58518 c 0.36328,0.21099 1.11456,0.25046 1.64266,0.0983 l 7.15783,-2.13052 -0.38093,2.53937 c -0.0263,0.26008 0.44402,0.49228 1.11757,0.49528 0.64045,0.005 1.2232,-0.19118 1.2456,-0.46465 l 0.49659,-3.30806 1.79677,-0.53645 8.56636,1.37001 0.26916,0.93763 -5.9617,2.43084 c -0.45037,0.18861 -0.46506,0.48887 -0.006,0.68089 0.45488,0.17861 1.19463,0.1779 1.67808,-0.0125 l 4.66912,-1.89548 1.01902,3.54961 c 0.073,0.25451 0.66419,0.43908 1.2931,0.40377 0.6289,-0.0353 1.09698,-0.27938 1.02392,-0.53389 l -1.01517,-3.5362 5.28641,1.3092 c 0.54264,0.13285 1.26316,0.0652 1.63579,-0.15992 0.33952,-0.22322 0.18872,-0.51419 -0.35777,-0.66044 l -6.91435,-1.70777 -0.30758,-1.07158 6.70595,-2.0643 2.97655,0.52699 1.84584,3.1493 c 0.13926,0.25078 0.7889,0.40485 1.41013,0.34275 0.62121,-0.0621 1.0154,-0.32924 0.87613,-0.58002 l -1.43959,-2.43714 7.36939,1.30112 c 0.60116,0.10235 1.27705,-0.004 1.54268,-0.24996 0.26563,-0.2463 0.0194,-0.51829 -0.58178,-0.62064 l -7.68652,-1.35137 5.89519,-1.25657 c 0.56888,-0.12722 0.82298,-0.4137 0.52206,-0.6418 -0.21933,-0.17824 -0.71735,-0.27276 -1.18075,-0.24674 -0.13238,0.008 -0.26096,0.0282 -0.38951,0.0491 l -7.60955,1.61145 -2.62247,-0.46521 -0.98056,-3.41567 3.03619,-0.90547 7.68049,0.86172 c 0.62657,0.0737 1.28707,-0.0859 1.4534,-0.32662 0.19559,-0.25597 -0.1831,-0.52053 -0.77269,-0.58269 l -5.94473,-0.67337 6.60048,-1.9631 c 0.5281,-0.15215 0.6421,-0.458 0.27884,-0.66898 -0.24475,-0.14958 -0.66503,-0.20764 -1.09533,-0.18348 -0.19859,0.0112 -0.39337,0.0357 -0.54732,0.0852 l -6.87916,2.04681 0.40867,-2.67704 c 0.0263,-0.26008 -0.44402,-0.49226 -1.11756,-0.49528 -0.0663,0.004 -0.13625,-0.006 -0.20245,-0.002 -0.56271,0.0316 -1.01307,0.22021 -1.04699,0.4535 l -0.52434,3.44573 -2.69516,0.80466 -7.81425,-1.56196 -0.3807,-1.32608 5.71995,-2.33559 c 0.45037,-0.18862 0.46508,-0.48887 0.006,-0.68088 -0.26632,-0.10755 -0.61655,-0.15593 -0.98065,-0.13549 -0.26483,0.0147 -0.48882,0.0547 -0.70128,0.13466 l -4.4274,1.80024 -0.92288,-3.21474 c -0.073,-0.2545 -0.66418,-0.43908 -1.2931,-0.40377 -0.62891,0.0353 -1.09698,0.27939 -1.02392,0.53389 l 0.97671,3.40226 -5.57812,-1.38809 c -0.54265,-0.13286 -1.26317,-0.0652 -1.63579,0.15991 -0.33953,0.22323 -0.18873,0.5142 0.35777,0.66044 l 7.20222,1.77327 0.32684,1.13855 -7.46726,2.10706 -2.09135,-0.37255 -1.91741,-3.28138 c -0.13541,-0.23739 -0.68191,-0.38364 -1.27771,-0.35019 -0.0331,0.002 -0.0993,0.005 -0.13238,0.008 -0.62122,0.0621 -1.01541,0.32923 -0.87614,0.58002 l 1.51116,2.56922 -8.0406,-1.41314 c -0.21014,-0.029 -0.41643,-0.0447 -0.61504,-0.0335 -0.39719,0.0224 -0.77133,0.12498 -0.92763,0.28347 -0.26564,0.2463 -0.0193,0.51829 0.58178,0.62065 l 7.97054,1.40346 -5.61267,1.18627 c -0.56888,0.12722 -0.82298,0.4137 -0.52206,0.64179 0.30092,0.2281 1.00138,0.32487 1.57027,0.19765 l 7.32317,-1.55453 2.09136,0.37254 1.069,3.72374 -1.85912,0.55355 -7.99378,-0.89856 c -0.17319,-0.0175 -0.30945,-0.0234 -0.47494,-0.0141 -0.46341,0.026 -0.86295,0.15735 -0.97846,0.34077 -0.19559,0.25597 0.1831,0.52054 0.77269,0.5827 l 6.25416,0.69682 -7.18707,2.14576 c -0.49116,0.16369 -0.63827,0.47138 -0.2419,0.68051 z m 15.30551,-3.97634 5.2987,-1.57696 0.72676,2.53161 z m 8.33714,0.68873 -0.66909,-2.33068 5.24109,0.91703 z m 5.459,-2.30732 -5.27803,-0.92858 4.61664,-1.37532 z m -1.99211,-3.07303 -4.64974,1.37718 -0.69985,-2.43784 z m -7.69738,-1.03771 0.73061,2.545 -5.98619,-1.05212 z m -6.24957,2.36534 5.98617,1.05213 -5.23632,1.55984 z"
         id="path1710-3-2-1-07-1"
         inkscape:transform-center-x="24.215121"
         inkscape:transform-center-y="11.884123"
         style="fill:#2c88a0;fill-opacity:1;stroke-width:0.212254" />
      <g
         id="g1720-9-9-2-4-4"
         transform="matrix(1.9065094,0,0,2.2933545,285.59506,861.73064)">
        <circle
           style="fill:#030104"
           cx="22.320999"
           cy="2.313"
           r="2.313"
           id="circle1712-7-3-4-5-5" />
        <path
           style="fill:#030104"
           d="m 17.183,2.936 c 1.035,0 2.561,0.632 2.561,2.157 0,1.525 -0.978,4.333 -0.978,4.333 0,0 2.555,1.673 3.191,2.186 1.332,1.072 0.879,2.034 -0.904,1.281 C 18.158,11.671 16.799,11.068 16.581,10.305 16.363,9.542 16.556,7.994 16.556,7.994 L 14.883,8.689 7.805,3.487 c 0,0 -0.65,0.462 -0.99,0.462 -0.342,0 -0.75,-0.25 -0.75,-0.25 L 6.852,2.642 6.008,1.612 7.18,2.111 c -0.022,0 0.725,-0.979 0.725,-0.979 0,0 0.387,0.228 0.478,0.682 0.091,0.454 -0.078,0.892 -0.078,0.892 l 3.047,2.233 c 0,0 1.798,-2.003 5.831,-2.003 z"
           id="path1714-1-3-4-4-6" />
        <path
           style="fill:#030104"
           d="m 9.696,7.023 c 0,0 5.735,4.012 6.498,4.611 0.764,0.6 2.581,2.188 0.667,4.541 -1.874,2.304 -3.882,4.561 -3.882,4.561 l -1.146,-0.491 -1.472,-0.764 c 0,0 2.759,-3.442 3.25,-4.097 C 14.101,14.73 13.945,14.19 13.279,13.69 12.634,13.207 11.539,12.571 10.57,11.898 9.612,11.232 8.112,9.19 9.696,7.023 Z"
           id="path1716-2-4-7-77-0" />
        <path
           style="fill:none;stroke:#030104;stroke-width:2;stroke-linecap:round;stroke-linejoin:round;stroke-miterlimit:10"
           d="m 1.054,13.118 19.78,11.344 c 0,0 2.561,1.144 3.924,-0.709"
           id="path1718-0-3-5-8-1" />
      </g>
    </g>
    <g
       id="g1722-6-2-9-1-7-9"
       transform="matrix(0.32450823,-0.02986054,0.03762896,0.34822858,74.591855,-186.35315)"
       inkscape:transform-center-x="-13.031416"
       inkscape:transform-center-y="17.773874"
       style="display:inline">
      <path
         d="m 269.28807,916.58518 c 0.36328,0.21099 1.11456,0.25046 1.64266,0.0983 l 7.15783,-2.13052 -0.38093,2.53937 c -0.0263,0.26008 0.44402,0.49228 1.11757,0.49528 0.64045,0.005 1.2232,-0.19118 1.2456,-0.46465 l 0.49659,-3.30806 1.79677,-0.53645 8.56636,1.37001 0.26916,0.93763 -5.9617,2.43084 c -0.45037,0.18861 -0.46506,0.48887 -0.006,0.68089 0.45488,0.17861 1.19463,0.1779 1.67808,-0.0125 l 4.66912,-1.89548 1.01902,3.54961 c 0.073,0.25451 0.66419,0.43908 1.2931,0.40377 0.6289,-0.0353 1.09698,-0.27938 1.02392,-0.53389 l -1.01517,-3.5362 5.28641,1.3092 c 0.54264,0.13285 1.26316,0.0652 1.63579,-0.15992 0.33952,-0.22322 0.18872,-0.51419 -0.35777,-0.66044 l -6.91435,-1.70777 -0.30758,-1.07158 6.70595,-2.0643 2.97655,0.52699 1.84584,3.1493 c 0.13926,0.25078 0.7889,0.40485 1.41013,0.34275 0.62121,-0.0621 1.0154,-0.32924 0.87613,-0.58002 l -1.43959,-2.43714 7.36939,1.30112 c 0.60116,0.10235 1.27705,-0.004 1.54268,-0.24996 0.26563,-0.2463 0.0194,-0.51829 -0.58178,-0.62064 l -7.68652,-1.35137 5.89519,-1.25657 c 0.56888,-0.12722 0.82298,-0.4137 0.52206,-0.6418 -0.21933,-0.17824 -0.71735,-0.27276 -1.18075,-0.24674 -0.13238,0.008 -0.26096,0.0282 -0.38951,0.0491 l -7.60955,1.61145 -2.62247,-0.46521 -0.98056,-3.41567 3.03619,-0.90547 7.68049,0.86172 c 0.62657,0.0737 1.28707,-0.0859 1.4534,-0.32662 0.19559,-0.25597 -0.1831,-0.52053 -0.77269,-0.58269 l -5.94473,-0.67337 6.60048,-1.9631 c 0.5281,-0.15215 0.6421,-0.458 0.27884,-0.66898 -0.24475,-0.14958 -0.66503,-0.20764 -1.09533,-0.18348 -0.19859,0.0112 -0.39337,0.0357 -0.54732,0.0852 l -6.87916,2.04681 0.40867,-2.67704 c 0.0263,-0.26008 -0.44402,-0.49226 -1.11756,-0.49528 -0.0663,0.004 -0.13625,-0.006 -0.20245,-0.002 -0.56271,0.0316 -1.01307,0.22021 -1.04699,0.4535 l -0.52434,3.44573 -2.69516,0.80466 -7.81425,-1.56196 -0.3807,-1.32608 5.71995,-2.33559 c 0.45037,-0.18862 0.46508,-0.48887 0.006,-0.68088 -0.26632,-0.10755 -0.61655,-0.15593 -0.98065,-0.13549 -0.26483,0.0147 -0.48882,0.0547 -0.70128,0.13466 l -4.4274,1.80024 -0.92288,-3.21474 c -0.073,-0.2545 -0.66418,-0.43908 -1.2931,-0.40377 -0.62891,0.0353 -1.09698,0.27939 -1.02392,0.53389 l 0.97671,3.40226 -5.57812,-1.38809 c -0.54265,-0.13286 -1.26317,-0.0652 -1.63579,0.15991 -0.33953,0.22323 -0.18873,0.5142 0.35777,0.66044 l 7.20222,1.77327 0.32684,1.13855 -7.46726,2.10706 -2.09135,-0.37255 -1.91741,-3.28138 c -0.13541,-0.23739 -0.68191,-0.38364 -1.27771,-0.35019 -0.0331,0.002 -0.0993,0.005 -0.13238,0.008 -0.62122,0.0621 -1.01541,0.32923 -0.87614,0.58002 l 1.51116,2.56922 -8.0406,-1.41314 c -0.21014,-0.029 -0.41643,-0.0447 -0.61504,-0.0335 -0.39719,0.0224 -0.77133,0.12498 -0.92763,0.28347 -0.26564,0.2463 -0.0193,0.51829 0.58178,0.62065 l 7.97054,1.40346 -5.61267,1.18627 c -0.56888,0.12722 -0.82298,0.4137 -0.52206,0.64179 0.30092,0.2281 1.00138,0.32487 1.57027,0.19765 l 7.32317,-1.55453 2.09136,0.37254 1.069,3.72374 -1.85912,0.55355 -7.99378,-0.89856 c -0.17319,-0.0175 -0.30945,-0.0234 -0.47494,-0.0141 -0.46341,0.026 -0.86295,0.15735 -0.97846,0.34077 -0.19559,0.25597 0.1831,0.52054 0.77269,0.5827 l 6.25416,0.69682 -7.18707,2.14576 c -0.49116,0.16369 -0.63827,0.47138 -0.2419,0.68051 z m 15.30551,-3.97634 5.2987,-1.57696 0.72676,2.53161 z m 8.33714,0.68873 -0.66909,-2.33068 5.24109,0.91703 z m 5.459,-2.30732 -5.27803,-0.92858 4.61664,-1.37532 z m -1.99211,-3.07303 -4.64974,1.37718 -0.69985,-2.43784 z m -7.69738,-1.03771 0.73061,2.545 -5.98619,-1.05212 z m -6.24957,2.36534 5.98617,1.05213 -5.23632,1.55984 z"
         id="path1710-3-2-1-07-1-3"
         inkscape:transform-center-x="24.215121"
         inkscape:transform-center-y="11.884123"
         style="fill:#2c88a0;fill-opacity:1;stroke-width:0.212254" />
      <g
         id="g1720-9-9-2-4-4-7"
         transform="matrix(1.9065094,0,0,2.2933545,285.59506,861.73064)">
        <circle
           style="fill:#030104"
           cx="22.320999"
           cy="2.313"
           r="2.313"
           id="circle1712-7-3-4-5-5-3" />
        <path
           style="fill:#030104"
           d="m 17.183,2.936 c 1.035,0 2.561,0.632 2.561,2.157 0,1.525 -0.978,4.333 -0.978,4.333 0,0 2.555,1.673 3.191,2.186 1.332,1.072 0.879,2.034 -0.904,1.281 C 18.158,11.671 16.799,11.068 16.581,10.305 16.363,9.542 16.556,7.994 16.556,7.994 L 14.883,8.689 7.805,3.487 c 0,0 -0.65,0.462 -0.99,0.462 -0.342,0 -0.75,-0.25 -0.75,-0.25 L 6.852,2.642 6.008,1.612 7.18,2.111 c -0.022,0 0.725,-0.979 0.725,-0.979 0,0 0.387,0.228 0.478,0.682 0.091,0.454 -0.078,0.892 -0.078,0.892 l 3.047,2.233 c 0,0 1.798,-2.003 5.831,-2.003 z"
           id="path1714-1-3-4-4-6-7" />
        <path
           style="fill:#030104"
           d="m 9.696,7.023 c 0,0 5.735,4.012 6.498,4.611 0.764,0.6 2.581,2.188 0.667,4.541 -1.874,2.304 -3.882,4.561 -3.882,4.561 l -1.146,-0.491 -1.472,-0.764 c 0,0 2.759,-3.442 3.25,-4.097 C 14.101,14.73 13.945,14.19 13.279,13.69 12.634,13.207 11.539,12.571 10.57,11.898 9.612,11.232 8.112,9.19 9.696,7.023 Z"
           id="path1716-2-4-7-77-0-5" />
        <path
           style="fill:none;stroke:#030104;stroke-width:2;stroke-linecap:round;stroke-linejoin:round;stroke-miterlimit:10"
           d="m 1.054,13.118 19.78,11.344 c 0,0 2.561,1.144 3.924,-0.709"
           id="path1718-0-3-5-8-1-1" />
      </g>
    </g>
  </g>
</svg>
