<?xml version="1.0" encoding="UTF-8" standalone="no"?>
<svg
   xmlns:dc="http://purl.org/dc/elements/1.1/"
   xmlns:cc="http://creativecommons.org/ns#"
   xmlns:rdf="http://www.w3.org/1999/02/22-rdf-syntax-ns#"
   xmlns:svg="http://www.w3.org/2000/svg"
   xmlns="http://www.w3.org/2000/svg"
   xmlns:xlink="http://www.w3.org/1999/xlink"
   xmlns:sodipodi="http://sodipodi.sourceforge.net/DTD/sodipodi-0.dtd"
   xmlns:inkscape="http://www.inkscape.org/namespaces/inkscape"
   width="210mm"
   height="297mm"
   viewBox="0 0 210 297"
   version="1.1"
   id="svg8"
   inkscape:version="1.0.1 (3bc2e813f5, 2020-09-07)"
   sodipodi:docname="lyzar_zeleny1.svg">
  <defs
     id="defs2">
    <linearGradient
       inkscape:collect="always"
       id="linearGradient1479">
      <stop
         style="stop-color:#80e5ff;stop-opacity:1;"
         offset="0"
         id="stop1475" />
      <stop
         style="stop-color:#80e5ff;stop-opacity:0;"
         offset="1"
         id="stop1477" />
    </linearGradient>
    <linearGradient
       inkscape:collect="always"
       xlink:href="#linearGradient1479"
       id="linearGradient1481"
       x1="-196.16965"
       y1="105.83333"
       x2="15.497009"
       y2="105.83333"
       gradientUnits="userSpaceOnUse"
       gradientTransform="translate(5.345391,1.0690781)" />
  </defs>
  <sodipodi:namedview
     id="base"
     pagecolor="#ffffff"
     bordercolor="#666666"
     borderopacity="1.0"
     inkscape:pageopacity="0.0"
     inkscape:pageshadow="2"
     inkscape:zoom="1.4"
     inkscape:cx="126.49613"
     inkscape:cy="-4.464131"
     inkscape:document-units="mm"
     inkscape:current-layer="layer1"
     inkscape:document-rotation="0"
     showgrid="false"
     inkscape:window-width="1366"
     inkscape:window-height="728"
     inkscape:window-x="0"
     inkscape:window-y="0"
     inkscape:window-maximized="0" />
  <metadata
     id="metadata5">
    <rdf:RDF>
      <cc:Work
         rdf:about="">
        <dc:format>image/svg+xml</dc:format>
        <dc:type
           rdf:resource="http://purl.org/dc/dcmitype/StillImage" />
        <dc:title></dc:title>
      </cc:Work>
    </rdf:RDF>
  </metadata>
  <g
     inkscape:label="Vrstva 1"
     inkscape:groupmode="layer"
     id="layer1">
    <g
       id="g1081">
      <ellipse
         style="mix-blend-mode:normal;fill:#030104;stroke-width:0.722639"
         cx="14.87299"
         cy="9.1092272"
         id="circle1712-7-3-4-5-5-3"
         transform="matrix(0.99160983,-0.12926696,0.15335353,0.98817139,0,0)"
         rx="1.4914885"
         ry="1.8731568" />
      <path
         style="mix-blend-mode:normal;fill:#16502d;fill-opacity:1;stroke:none;stroke-width:0.722532;stroke-opacity:1"
         d="m 12.937172,8.0057299 c 0.661799,-0.086272 1.716038,0.292292 1.905436,1.5126867 0.189388,1.2203954 -0.08723,3.5490454 -0.08723,3.5490454 0,0 1.84149,1.125863 2.311875,1.483382 0.984832,0.746848 0.814655,1.554458 -0.418952,1.100485 C 14.64543,14.914724 13.701575,14.545448 13.467421,13.953021 13.233267,13.360594 13.16443,12.105706 13.16443,12.105706 L 12.18099,12.801339 7.0091493,9.2283765 c 0,0 -0.358246,0.4239007 -0.5756505,0.4522405 C 6.2148191,9.7091291 5.9228869,9.543069 5.9228869,9.543069 L 6.2948401,8.6315949 5.6272579,7.8776785 6.4386203,8.179316 c -0.014019,0.00181 0.3419946,-0.8438865 0.3419946,-0.8438865 0,0 0.2757743,0.1502012 0.3903437,0.505934 0.1145693,0.3557317 0.060956,0.7203325 0.060956,0.7203325 l 2.2256234,1.532997 c 0,0 0.900927,-1.7527928 3.479698,-2.0889631 z"
         id="path1714-1-3-4-4-6-7" />
      <path
         style="mix-blend-mode:normal;fill:#030104;stroke-width:0.722532"
         d="m 8.6574213,11.900469 c 0,0 4.1653167,2.7326 4.7275817,3.148355 0.563034,0.416473 1.922071,1.535828 0.990449,3.578381 -0.912131,2.000004 -1.915789,3.973567 -1.915789,3.973567 l -0.79375,-0.297402 -1.036098,-0.4887 c 0,0 1.33668,-2.984469 1.569297,-3.549567 0.232088,-0.564214 0.06532,-0.98335 -0.422669,-1.327965 C 11.304032,16.604376 10.524882,16.186685 9.8217025,15.728881 9.1264256,15.275762 7.9137018,13.766665 8.6574213,11.900469 Z"
         id="path1716-2-4-7-77-0-5" />
      <path
         style="mix-blend-mode:normal;fill:none;stroke:#030104;stroke-width:1.44506;stroke-linecap:round;stroke-linejoin:round;stroke-miterlimit:10"
         d="m 3.88851,17.498404 14.056525,7.429381 c 0,0 1.779631,0.702024 2.421024,-0.89447"
         id="path1718-0-3-5-8-1-1" />
    </g>
  </g>
  <style
     id="style12" />
</svg>
