<?xml version="1.0" encoding="UTF-8" standalone="no"?>
<svg
   xmlns:dc="http://purl.org/dc/elements/1.1/"
   xmlns:cc="http://creativecommons.org/ns#"
   xmlns:rdf="http://www.w3.org/1999/02/22-rdf-syntax-ns#"
   xmlns:svg="http://www.w3.org/2000/svg"
   xmlns="http://www.w3.org/2000/svg"
   xmlns:xlink="http://www.w3.org/1999/xlink"
   xmlns:sodipodi="http://sodipodi.sourceforge.net/DTD/sodipodi-0.dtd"
   xmlns:inkscape="http://www.inkscape.org/namespaces/inkscape"
   width="7.0866141pc"
   height="3.3070867pc"
   viewBox="0 0 30 14"
   version="1.1"
   id="svg884"
   inkscape:version="1.0.1 (3bc2e813f5, 2020-09-07)"
   sodipodi:docname="vlocka.svg">
  <defs
     id="defs878">
    <linearGradient
       inkscape:collect="always"
       id="linearGradient1479">
      <stop
         style="stop-color:#80e5ff;stop-opacity:1;"
         offset="0"
         id="stop1475" />
      <stop
         style="stop-color:#80e5ff;stop-opacity:0;"
         offset="1"
         id="stop1477" />
    </linearGradient>
    <linearGradient
       inkscape:collect="always"
       xlink:href="#linearGradient1479"
       id="linearGradient1481"
       x1="-196.16965"
       y1="105.83333"
       x2="15.497009"
       y2="105.83333"
       gradientUnits="userSpaceOnUse"
       gradientTransform="translate(5.345391,1.0690781)" />
  </defs>
  <sodipodi:namedview
     id="base"
     pagecolor="#ffffff"
     bordercolor="#666666"
     borderopacity="1.0"
     inkscape:pageopacity="0.0"
     inkscape:pageshadow="2"
     inkscape:zoom="2.8"
     inkscape:cx="113.80443"
     inkscape:cy="68.173417"
     inkscape:document-units="pc"
     inkscape:current-layer="layer1"
     inkscape:document-rotation="0"
     showgrid="false"
     width="36mm"
     units="pc"
     inkscape:window-width="1366"
     inkscape:window-height="728"
     inkscape:window-x="0"
     inkscape:window-y="0"
     inkscape:window-maximized="0" />
  <metadata
     id="metadata881">
    <rdf:RDF>
      <cc:Work
         rdf:about="">
        <dc:format>image/svg+xml</dc:format>
        <dc:type
           rdf:resource="http://purl.org/dc/dcmitype/StillImage" />
        <dc:title></dc:title>
      </cc:Work>
    </rdf:RDF>
  </metadata>
  <g
     inkscape:label="Vrstva 1"
     inkscape:groupmode="layer"
     id="layer1">
    <path
       d="m 2.7721531,12.536853 c 0.2317375,0.119278 0.6834887,0.102642 0.9885642,-0.02816 l 4.1302856,-1.819994 -0.051788,1.705746 c 0.00178,0.173907 0.2994886,0.301217 0.7022535,0.264904 0.3831309,-0.03307 0.7178077,-0.196344 0.7122386,-0.378984 l 0.067573,-2.222098 1.036683,-0.4579424 5.21473,0.4214224 0.225832,0.60652 -3.394601,1.951124 c -0.256107,0.150655 -0.244082,0.350668 0.04363,0.451893 0.284234,0.09262 0.726303,0.05009 1.002044,-0.103783 l 2.65918,-1.522574 0.85503,2.296102 c 0.06138,0.164644 0.427382,0.253432 0.800811,0.194247 0.373431,-0.05916 0.636258,-0.247667 0.574964,-0.412311 l -0.851804,-2.287427 3.250214,0.567619 c 0.333523,0.05727 0.75945,-0.02855 0.966552,-0.199087 0.18747,-0.167291 0.07715,-0.351728 -0.259582,-0.417641 L 17.194161,10.407056 16.936083,9.7138845 20.8009,7.9635296 l 1.815482,0.180145 1.321449,1.9835994 c 0.10056,0.158406 0.499533,0.223622 0.866526,0.147064 0.366954,-0.07655 0.584041,-0.276096 0.483426,-0.4344847 l -1.029288,-1.5344044 4.494563,0.4438033 c 0.366371,0.033647 0.762946,-0.075234 0.904674,-0.2535075 0.141712,-0.1784436 -0.0243,-0.3448273 -0.390722,-0.3785123 L 24.579429,7.6581369 28.015656,6.4895382 C 28.346841,6.3729067 28.478865,6.1683773 28.283203,6.034223 28.139721,5.9285562 27.835583,5.8941517 27.56043,5.9378183 27.48186,5.9510433 27.406472,5.971278 27.331032,5.992636 L 22.894785,7.4940778 21.295183,7.334726 20.472449,5.1252558 22.224296,4.3521065 26.874334,4.4868844 C 27.253918,4.5001095 27.637615,4.3566436 27.720337,4.1876129 27.819467,4.006712 27.574908,3.8528231 27.218144,3.8451295 L 23.61857,3.7366276 27.427357,2.0593696 c 0.305075,-0.1309972 0.352004,-0.3402718 0.120258,-0.4595304 -0.156789,-0.085253 -0.411847,-0.099808 -0.66735,-0.059355 -0.117948,0.018903 -0.232625,0.046123 -0.321196,0.087709 l -3.969546,1.7486355 0.05871,-1.798615 c -0.0017,-0.1739069 -0.299489,-0.3012182 -0.702254,-0.2649247 -0.03938,0.00568 -0.08177,0.00377 -0.121146,0.00945 -0.334109,0.052927 -0.590214,0.2036602 -0.594311,0.3603088 l -0.07468,2.3149683 -1.555029,0.686914 -4.778515,-0.591492 -0.319423,-0.8577776 3.256721,-1.8742266 c 0.256106,-0.1506564 0.244063,-0.3506497 -0.04363,-0.45189385 -0.166718,-0.0561422 -0.379282,-0.0684296 -0.595482,-0.0340249 -0.15731,0.0247629 -0.28835,0.0640809 -0.409788,0.12910705 L 14.189379,2.4503012 13.415011,0.37080738 C 13.353641,0.20616277 12.987647,0.1173946 12.614199,0.17657971 12.240771,0.23574581 11.977942,0.42424606 12.039255,0.58887177 L 12.858779,2.7896655 9.4287596,2.1863214 C 9.0952358,2.1290456 8.6692901,2.2148649 8.4621879,2.3853885 8.2747371,2.5526793 8.3850368,2.7371343 8.7218063,2.80303 L 13.14915,3.5694686 13.423419,4.305965 9.1065513,6.1279817 7.8308249,5.9998197 6.4574625,3.9326887 C 6.3600918,3.7829773 6.0233052,3.7170438 5.6695447,3.7731479 c -0.019686,0.00377 -0.058884,0.00945 -0.07857,0.013225 C 5.2240006,3.86293 5.0069132,4.0624698 5.1075467,4.2208574 L 6.1887635,5.8388044 1.2852808,5.3588778 C 1.1575827,5.3513102 1.0332889,5.3531972 0.91536296,5.3721039 0.67954618,5.4095322 0.4630262,5.4987529 0.38060743,5.6128517 0.23907492,5.7912955 0.40490554,5.9576793 0.77131189,5.9913831 L 5.6322639,6.468871 2.360006,7.5747688 C 2.0288234,7.6914001 1.8967973,7.8959297 2.0924774,8.0300838 2.2881224,8.1642954 2.7134649,8.1884904 3.0446477,8.0718585 L 7.3136813,6.6244602 8.5894255,6.752622 9.4864012,9.1613678 8.4136447,9.6341866 3.5737984,9.4927931 C 3.4689798,9.4909835 3.3872346,9.4947183 3.2889598,9.5098041 3.0138049,9.5534731 2.7841249,9.6632964 2.7277956,9.7914387 2.6286526,9.972341 2.8732295,10.126249 3.2299879,10.133942 l 3.7861557,0.106429 -4.1467091,1.831751 c -0.2822138,0.136481 -0.3488121,0.348913 -0.097371,0.465071 z M 11.644064,9.0293939 14.701592,7.6822572 15.311389,9.3198568 Z M 16.674571,9.012381 16.113157,7.5047581 19.309098,7.8148797 Z M 19.77729,7.1717642 16.558472,6.8560852 19.222334,5.6814565 Z M 18.373706,5.2470478 15.69021,6.4248145 15.102991,4.8478557 Z m -4.67233,-0.2504451 0.613042,1.6462572 -3.650619,-0.3573223 z m -3.571179,1.9240549 3.6506,0.3573411 -3.021436,1.3322416 z"
       id="path1710-3-2-1-07-1-3"
       inkscape:transform-center-x="42.947724"
       inkscape:transform-center-y="22.464487"
       style="mix-blend-mode:normal;fill:#2c88a0;fill-opacity:1;stroke-width:0.134292" />
  </g>
  <style
     id="style12" />
</svg>
